<svg xmlns="http://www.w3.org/2000/svg" viewBox="0 0 1308 261.94"><defs><style>.cls-1{fill:#162151;}.cls-2{fill:#fdfffb;}.cls-3{fill:#3860e0;}.cls-4{fill:#3a65ee;}.cls-5{fill:none;}.cls-6{fill:#fdfcfd;}.cls-7{fill:#fff;}</style></defs><g id="Characters"><path class="cls-1" d="M224.08-655c10.59,32.92,42,66.8,82.21,67.26,47.86.54,88-46.44,88.55-95.62.53-49.71-39.5-97.77-87.54-97.67-40.94.09-72.64,35.12-83.22,68.28A96.32,96.32,0,0,0,224.08-655Z" transform="translate(525.52 795.35)"/><path class="cls-2" d="M258.59-682.64c.1-28.23,18-51.36,40-55.83,29.82-6.06,60,23.66,60.13,55.45.09,26.07-20.08,55.12-49.85,55.06C281.6-628,257.79-652.41,258.59-682.64Z" transform="translate(525.52 795.35)"/><path class="cls-3" d="M-432.8-747.6a17.86,17.86,0,0,0-9.14,15.4,17.88,17.88,0,0,0,9.14,15.79l72.88,1.73a11.94,11.94,0,0,0,6.55-5.24,10.62,10.62,0,0,0,1.17-5.18c0-5.36.38-18.42.84-36.11l80.94-.59a76.57,76.57,0,0,1,10,5.54,78.5,78.5,0,0,1,13.12,11c7.23,7.34,21.44,23.63,38.94,45.82a19.44,19.44,0,0,0-3.67,4,20,20,0,0,0-3.05,6.8,54.22,54.22,0,0,0,3.93,6,57.38,57.38,0,0,0,8.06,8.6,69.54,69.54,0,0,0,8.56,6.54,34.46,34.46,0,0,0,11-9.49c10.24-13.66,6.39-30.46,5.71-33.24-10.51-14.41-20.19-27.13-28.67-38-14.69-18.82-21.56-26.65-32.35-34.27a108.62,108.62,0,0,0-19.86-11.1c-59.06-1.65-102.22-1.65-110.18-1.74a12.7,12.7,0,0,0-8.37,3.08,13.14,13.14,0,0,0-4.32,8.69q-.69,17.22-1.39,34.44Z" transform="translate(525.52 795.35)"/><path class="cls-1" d="M-41.4-619.14c2.36,11,12.26,18.1,22.07,16.94,8-.95,14.89-7.31,17-15.92l1-108.06c2.77-17.38,18.55-28.66,33.49-26.19,12.31,2,22.44,13.17,23.85,27.21q1,51.72,2,103.45c1.49,12.3,12.15,20.4,22.07,19,7.62-1.08,14.18-7.68,16-16.42q.38-52.11.76-104.22c1.49-15.13,13.12-27,27.15-28.49,15.68-1.67,30.85,10,33.49,27v107.3c3.29,11.81,14.42,18,23.09,15.4,6-1.8,10.57-7.72,11.92-14.89l1.74-123.22c-9.51-28.05-31.23-48.75-56.54-52.87-6.65-1.08-32.52-5.29-46.18,9-4.87,5.09-8.46,12.81-14,12.32-4-.35-5.55-4.84-9.89-9.49-7.7-8.25-17.53-10.54-25.11-12.3-20.73-4.82-38.54,4.4-43.9,7.16-26.88,13.84-36.09,40.09-38.06,46.21Q-40.39-679.73-41.4-619.14Z" transform="translate(525.52 795.35)"/><path class="cls-4" d="M449-630.91c-32.86-55.88-36.55-112.94-35.39-147.68a45.64,45.64,0,0,1,21.82-.51c30.17,7,40.18,44.38,40.6,46-6.19,2.7-20.78,10.15-24.87,24.65-3.77,13.38,3.61,25,17.25,46.38,12.75,20,20.76,32.58,31.89,32.33,9.33-.21,15.6-9.32,27-25.84C543-678.38,552.47-692.12,548-707.3c-5.58-19.11-29.14-26.55-33.43-27.83C520-743.58,537.66-768.52,567-773a60.91,60.91,0,0,1,13.63-.53C578.9-755.85,567.24-643.76,532-603.19c-5.69,6.55-17.64,20.06-33.11,19.63-14-.38-24.06-11.3-27.78-15.78A246,246,0,0,1,449-630.91Z" transform="translate(525.52 795.35)"/><path class="cls-4" d="M650-663.47l122.93-2.31a20.61,20.61,0,0,0,4.44-4c10.2-12.26,2.28-32.79,1.27-35.31-4.48-39.86-35.49-71.5-74.21-76.23-40.18-4.91-78.92,20.34-91.34,60.06a104.7,104.7,0,0,0-7.61,36.2,104.18,104.18,0,0,0,2.66,26.56A111.07,111.07,0,0,0,621.8-630a111.23,111.23,0,0,0,36.92,34.26c4.22,2.37,34.3,18.62,66.6,5a73.88,73.88,0,0,0,32-26.57c3.87-9.52,1.38-20.09-5.71-25.8-7.79-6.27-17.53-3.77-18.65-3.46-13.57,14.53-33.77,20.1-51.76,14.25C658.86-639.55,650.9-660.84,650-663.47Z" transform="translate(525.52 795.35)"/><path class="cls-1" d="M-214.86-765.16l21.57,23.36a53.77,53.77,0,0,1,9.64-3.86,58.87,58.87,0,0,1,20.36-1.92c10.55.46,21.11-.13,31.66.13,7.87.19,19.06.36,32.73.25v126.3h-86l-58.35-63.92L-222-707.54-245.37-734-270.93-700a50.38,50.38,0,0,0-1.58,18A50.38,50.38,0,0,0-268-665.36c9.82,12.42,20.74,25.35,32.85,38.55,11.13,12.14,22.1,23.25,32.73,33.37l18.27,7.19,106.05,1.8A22.55,22.55,0,0,0-71-589.33a22.91,22.91,0,0,0,4.31-6.16v-174a18.73,18.73,0,0,0-5.58-8.72,18.31,18.31,0,0,0-9.39-4.34l-103.27.74a59.62,59.62,0,0,0-15.73,5.91A60.15,60.15,0,0,0-214.86-765.16Z" transform="translate(525.52 795.35)"/><path class="cls-5" d="M-477.71-583.94" transform="translate(525.52 795.35)"/><path class="cls-3" d="M-435.09-618.59h-46.05c-.67.34-8.46,4.57-9.51,13.47a18,18,0,0,0,9.51,17.71h46.05c4.79,32.39,33.1,55.63,63.94,53.91,28.47-1.59,52.78-24.11,57.09-53.91a189,189,0,0,0,33.49-1.15c16.54-2.06,26.89-3.47,37.3-10.78a55.24,55.24,0,0,0,16.74-19.25L-247.08-639c-1.49,1.19-3.76,3-6.47,5.39-9,7.8-9.31,9.43-12.56,11.55-4.07,2.65-7.12,2.41-24.36,2.31-4.65,0-12.17,0-21.69,0-6.57-31.87-35.25-53.78-65.84-51.59C-405.93-669.34-429.77-647.66-435.09-618.59Z" transform="translate(525.52 795.35)"/><path class="cls-6" d="M-404.64-610.89c2.47-14.82,14.49-25.93,28.54-27,15.6-1.13,30.26,10.42,33.11,27a51,51,0,0,1,.76,9.24,50.85,50.85,0,0,1-.76,8.47,31.93,31.93,0,0,1-31.58,25,31.94,31.94,0,0,1-30.07-25,34.41,34.41,0,0,1-1.17-9.26A33.83,33.83,0,0,1-404.64-610.89Z" transform="translate(525.52 795.35)"/><path class="cls-3" d="M-515.52-678.15h62.67a17.07,17.07,0,0,1,11.67,15.92,17.05,17.05,0,0,1-11.67,16.43h-62.67A18.58,18.58,0,0,1-525.41-664C-524.38-673.38-516.17-677.81-515.52-678.15Z" transform="translate(525.52 795.35)"/><path class="cls-4" d="M564.33-586.25" transform="translate(525.52 795.35)"/><path class="cls-4" d="M533.16-741.57" transform="translate(525.52 795.35)"/><path class="cls-4" d="M539.21-742.57" transform="translate(525.52 795.35)"/><path class="cls-7" d="M647.25-700.72l93.37-.52q-3.42-8.46-6.85-16.94c-1.1-1.56-16-22.06-41.36-21.05-20.44.83-32.73,15-34.76,17.46a57.11,57.11,0,0,0-5.94,9.24A56.86,56.86,0,0,0,647.25-700.72Z" transform="translate(525.52 795.35)"/></g></svg>