<svg id="Layer_1" data-name="Layer 1" xmlns="http://www.w3.org/2000/svg" viewBox="0 0 1308 261.94"><defs><style>.cls-1{fill:#061b52;}.cls-2{fill:#fefffc;}.cls-3{fill:#0a60e5;}.cls-4{fill:#0a65f3;}.cls-5{fill:none;}.cls-6{fill:#fffdfe;}.cls-7{fill:#fff;}</style></defs><path class="cls-1" d="M780.6,393.36c10.59,32.92,42,66.8,82.21,67.26,47.86.54,88-46.44,88.55-95.62.53-49.71-39.5-97.77-87.54-97.67-40.94.09-72.64,35.12-83.22,68.28A96.23,96.23,0,0,0,780.6,393.36Z" transform="translate(-31 -253.06)"/><path class="cls-2" d="M815.11,365.77c.1-28.23,18-51.36,40-55.83,29.82-6.06,60,23.66,60.13,55.45.09,26.07-20.08,55.12-49.85,55.06C838.12,420.39,814.31,396,815.11,365.77Z" transform="translate(-31 -253.06)"/><path class="cls-3" d="M123.71,300.81a17.88,17.88,0,0,0,0,31.19l72.89,1.73a12,12,0,0,0,6.55-5.24,10.62,10.62,0,0,0,1.17-5.18c0-5.36.38-18.42.84-36.11l80.93-.58a74.45,74.45,0,0,1,10,5.53,78.9,78.9,0,0,1,13.12,11c7.22,7.34,21.44,23.63,38.94,45.82a19.73,19.73,0,0,0-3.68,4,20.13,20.13,0,0,0-3,6.8,52.81,52.81,0,0,0,3.93,6,57.38,57.38,0,0,0,8.06,8.6A70.49,70.49,0,0,0,362,380.9a34.63,34.63,0,0,0,11-9.5c10.24-13.66,6.39-30.46,5.71-33.24-10.51-14.41-20.19-27.12-28.67-38-14.69-18.82-21.56-26.65-32.35-34.27a108.62,108.62,0,0,0-19.86-11.1c-59.06-1.65-102.22-1.65-110.18-1.74a12.76,12.76,0,0,0-8.37,3.08,13.14,13.14,0,0,0-4.32,8.69q-.69,17.22-1.39,34.44Z" transform="translate(-31 -253.06)"/><path class="cls-1" d="M515.12,429.27c2.36,11,12.26,18.1,22.07,16.94,8-.95,14.88-7.31,17-15.92l1-108.06C558,304.85,573.76,293.57,588.7,296c12.31,2,22.43,13.17,23.85,27.21q1,51.74,2,103.45c1.49,12.3,12.15,20.4,22.07,19,7.61-1.08,14.18-7.68,16-16.42q.38-52.11.76-104.22c1.49-15.13,13.12-27,27.15-28.49,15.68-1.67,30.85,10,33.49,26.95v107.3c3.29,11.82,14.42,18,23.09,15.4,6-1.8,10.57-7.72,11.92-14.89q.87-61.6,1.73-123.22c-9.5-28.05-31.22-48.75-56.53-52.87-6.65-1.08-32.52-5.29-46.18,9-4.87,5.09-8.46,12.81-14,12.33-4-.36-5.55-4.85-9.89-9.5-7.7-8.25-17.53-10.54-25.11-12.3-20.73-4.82-38.54,4.4-43.9,7.16-26.88,13.84-36.09,40.09-38.06,46.21Q516.13,368.68,515.12,429.27Z" transform="translate(-31 -253.06)"/><path class="cls-4" d="M1005.53,417.5C972.67,361.62,969,304.57,970.14,269.82a45.64,45.64,0,0,1,21.82-.51c30.17,7,40.18,44.38,40.59,46-6.18,2.7-20.77,10.15-24.86,24.65-3.78,13.38,3.61,25,17.25,46.38,12.75,20,20.76,32.58,31.89,32.33,9.33-.21,15.6-9.32,27-25.84,15.72-22.82,25.18-36.56,20.74-51.74-5.59-19.1-29.14-26.55-33.43-27.83,5.44-8.45,23.06-33.39,52.39-37.86a61,61,0,0,1,13.64-.53c-1.74,17.67-13.4,129.76-48.65,170.33-5.69,6.55-17.64,20.06-33.11,19.64-14-.39-24.06-11.31-27.78-15.79A246,246,0,0,1,1005.53,417.5Z" transform="translate(-31 -253.06)"/><path class="cls-4" d="M1206.48,384.94l122.93-2.31a20.86,20.86,0,0,0,4.44-4c10.2-12.26,2.28-32.79,1.27-35.31-4.48-39.86-35.49-71.5-74.21-76.23-40.19-4.91-78.92,20.34-91.34,60.06a103.94,103.94,0,0,0-5,62.76,110.16,110.16,0,0,0,50.62,62.76c4.21,2.37,34.29,18.62,66.6,5a73.88,73.88,0,0,0,32-26.57c3.87-9.52,1.38-20.09-5.71-25.79-7.79-6.28-17.54-3.78-18.65-3.47-13.57,14.53-33.78,20.1-51.76,14.25C1215.38,408.86,1207.42,387.57,1206.48,384.94Z" transform="translate(-31 -253.06)"/><path class="cls-1" d="M341.66,283.25l21.57,23.36a52.52,52.52,0,0,1,9.64-3.85,58.68,58.68,0,0,1,20.36-1.93c10.54.46,21.11-.13,31.65.13,7.88.19,19.07.36,32.74.26V427.51h-86l-58.35-63.92,21.25-22.72-23.35-26.5-25.56,34.08a50.29,50.29,0,0,0,2.93,34.6c9.82,12.42,20.74,25.35,32.85,38.55,11.12,12.14,22.1,23.25,32.73,33.37l18.26,7.19L478.42,464a22.72,22.72,0,0,0,11.42-11v-174a18.73,18.73,0,0,0-5.58-8.72,18.31,18.31,0,0,0-9.39-4.34l-103.27.74a60,60,0,0,0-29.94,16.69Z" transform="translate(-31 -253.06)"/><path class="cls-5" d="M78.8,464.47" transform="translate(-31 -253.06)"/><path class="cls-3" d="M121.43,429.82H75.38c-.67.34-8.46,4.57-9.51,13.47A18,18,0,0,0,75.38,461h46.05c4.78,32.39,33.1,55.63,63.94,53.91,28.47-1.59,52.78-24.11,57.09-53.91A189,189,0,0,0,276,459.85c16.53-2.06,26.89-3.47,37.3-10.78A55.24,55.24,0,0,0,330,429.82l-20.55-20.41c-1.49,1.19-3.76,3-6.47,5.39-9,7.8-9.31,9.44-12.56,11.55-4.07,2.65-7.12,2.41-24.36,2.31-4.66,0-12.17-.05-21.69,0-6.57-31.87-35.25-53.78-65.84-51.59C150.59,379.07,126.75,400.75,121.43,429.82Z" transform="translate(-31 -253.06)"/><path class="cls-6" d="M151.88,437.52c2.47-14.82,14.49-25.93,28.54-26.95,15.6-1.14,30.26,10.41,33.11,26.95a51.87,51.87,0,0,1,0,17.71,31.49,31.49,0,0,1-61.65,0,34,34,0,0,1,0-17.71Z" transform="translate(-31 -253.06)"/><path class="cls-3" d="M41,370.26h62.67a17,17,0,0,1,0,32.35H41a18.61,18.61,0,0,1-9.9-18.23C32.14,375,40.35,370.6,41,370.26Z" transform="translate(-31 -253.06)"/><path class="cls-4" d="M1120.85,462.16" transform="translate(-31 -253.06)"/><path class="cls-4" d="M1089.68,306.84" transform="translate(-31 -253.06)"/><path class="cls-4" d="M1095.73,305.84" transform="translate(-31 -253.06)"/><path class="cls-7" d="M1203.77,347.69l93.37-.51-6.85-16.95c-1.1-1.56-16-22.06-41.36-21.05-20.44.83-32.73,15-34.76,17.46a56.25,56.25,0,0,0-10.4,21.05Z" transform="translate(-31 -253.06)"/></svg>